<?xml version="1.0" encoding="UTF-8" standalone="no"?>
<!-- Created with Inkscape (http://www.inkscape.org/) -->

<svg
   width="34.482841mm"
   height="37.17144mm"
   viewBox="0 0 34.482841 37.17144"
   version="1.1"
   id="svg1"
   xmlns="http://www.w3.org/2000/svg"
   xmlns:svg="http://www.w3.org/2000/svg">
  <defs
     id="defs1" />
  <g
     id="layer1"
     transform="translate(-445.5583,-404.28331)">
    <path
       id="path200-6"
       style="font-variation-settings:normal;vector-effect:none;fill:#000000;fill-opacity:1;fill-rule:evenodd;stroke:none;stroke-width:0.721137;stroke-linecap:butt;stroke-linejoin:miter;stroke-miterlimit:4;stroke-dasharray:none;stroke-dashoffset:0;stroke-opacity:1;-inkscape-stroke:none;stop-color:#000000"
       d="m 472.17926,404.28467 -0.002,5.2e-4 c -0.1874,-0.004 -0.37369,-0.002 -0.55914,0.0103 -0.0645,0.004 -0.12887,0.01 -0.19327,0.016 -0.31298,0.0286 -0.6227,0.0791 -0.92811,0.15038 -0.0121,0.003 -0.0237,0.007 -0.0357,0.009 -6.54248,1.72998 -7.35957,7.52842 -7.27712,13.64139 0.16885,0.0732 0.33539,0.1481 0.50281,0.22221 0.25143,-3.30505 1.41771,-10.30592 6.89364,-10.16734 l 5.1e-4,5.2e-4 c 1.13354,0.0287 2.14255,0.4956 2.76779,1.32602 0.10288,0.13664 0.19111,0.27699 0.27854,0.41754 l -0.003,0.005 c 0.0861,0.13639 0.16411,0.27515 0.23616,0.41496 0.006,0.0112 0.0114,0.0224 0.0171,0.0336 0.0622,0.1229 0.11824,0.24726 0.17002,0.37259 0.0352,0.0875 0.0674,0.1755 0.0977,0.26407 0.0235,0.0668 0.049,0.13311 0.0698,0.2005 0.67997,2.2839 -0.23979,4.71408 -1.16944,6.39755 -0.886,1.60442 -2.00786,3.02859 -3.33416,4.42815 -3.0968,-1.85345 -15.51749,-8.66321 -21.08399,-4.69532 -0.43899,0.28582 -0.83685,0.64015 -1.19217,1.05885 l -0.003,-5.2e-4 c -0.0845,0.0986 -0.16851,0.19767 -0.24805,0.30386 l -0.0243,0.0263 -0.0243,0.0264 c -1.85562,2.34354 -2.09541,5.58138 -0.60513,8.17263 v 0.001 c 0.0902,0.16431 0.18499,0.32456 0.28836,0.47904 0.0357,0.0538 0.0732,0.10694 0.11059,0.15968 0.18125,0.25676 0.38035,0.49927 0.59479,0.72812 0.009,0.009 0.018,0.0171 0.0258,0.0264 4.77464,4.81014 10.21133,2.60226 15.46791,-0.52759 -0.0217,-0.18156 -0.0427,-0.36276 -0.0631,-0.54364 -2.98233,1.43386 -9.64206,3.93715 -12.26333,-0.88056 -0.54191,-0.99603 -0.64217,-2.10309 -0.23564,-3.05976 0.067,-0.15759 0.14462,-0.30449 0.22272,-0.45062 h 0.006 c 0.075,-0.14255 0.15537,-0.27923 0.24029,-0.41135 0.007,-0.0108 0.014,-0.0217 0.0212,-0.0326 0.076,-0.11644 0.15729,-0.22798 0.24081,-0.33642 0.0554,-0.0706 0.11257,-0.13898 0.17105,-0.20619 0.048,-0.0562 0.0946,-0.11356 0.14469,-0.16743 1.63529,-1.7281 4.19256,-2.14961 6.12521,-2.18643 1.83246,-0.0349 3.62678,0.22452 5.50199,0.67335 -0.0186,1.18947 -0.26533,17.53319 6.47506,20.60752 0.46711,0.23729 0.97273,0.40443 1.51308,0.50282 l 5.2e-4,0.003 c 0.12618,0.0236 0.25285,0.0467 0.38292,0.0625 0.002,1.9e-4 0.003,3.2e-4 0.005,5.1e-4 l 0.0341,0.008 c 8.7e-4,1.2e-4 0.002,4e-4 0.003,5.2e-4 l 0.0325,0.007 c 2.95737,0.43524 5.88148,-0.97634 7.38043,-3.56258 l 5.2e-4,-5.1e-4 c 0.0972,-0.16028 0.18815,-0.32264 0.27027,-0.48938 0.0287,-0.0578 0.0562,-0.11641 0.0832,-0.17518 0.13174,-0.28535 0.24234,-0.57888 0.33332,-0.87902 0.003,-0.012 0.006,-0.0242 0.0103,-0.0357 1.77491,-6.52119 -2.82993,-10.13339 -8.16208,-13.11655 -0.14814,0.11018 -0.2962,0.21907 -0.44442,0.32763 2.74087,1.8756 8.19952,6.37898 5.34593,11.0448 -0.59163,0.96733 -1.50088,1.60749 -2.53266,1.73375 -0.16973,0.0208 -0.33537,0.027 -0.50075,0.0326 l -0.003,-0.005 c -0.1587,0.006 -0.31549,0.005 -0.47025,-0.003 -0.0176,-9.7e-4 -0.0352,-10e-4 -0.0527,-0.003 -0.13593,-0.008 -0.26969,-0.0216 -0.40256,-0.0393 -0.0883,-0.0126 -0.17562,-0.0281 -0.26252,-0.045 -0.0738,-0.0137 -0.14834,-0.0252 -0.22117,-0.0419 -2.319,-0.55355 -3.9646,-2.56885 -4.95526,-4.21162 -0.94648,-1.5695 -1.61943,-3.25312 -2.16834,-5.1015 3.55617,-1.97934 15.25203,-9.22094 14.60996,-15.91118 -0.0281,-0.52325 -0.13587,-1.04495 -0.32091,-1.56217 l 0.002,-0.002 c -0.0426,-0.12135 -0.0859,-0.24253 -0.13746,-0.36329 -5.2e-4,-10e-4 -0.001,-0.002 -0.002,-0.004 l -0.0103,-0.0341 c -2.9e-4,-7.2e-4 -7.9e-4,-0.001 -0.001,-0.002 l -0.01,-0.032 c -1.10175,-2.77878 -3.78606,-4.60557 -6.77529,-4.61057 z m -8.53592,16.00058 c 0.6241,0.15727 3.25358,0.86113 5.72472,2.13733 -0.45252,0.46625 -2.37305,2.38744 -4.71341,3.88917 -0.17574,-0.61872 -0.8809,-3.24763 -1.01131,-6.0265 z" />
  </g>
</svg>
